<svg width="900" height="560" viewBox="0 0 900 560" xmlns="http://www.w3.org/2000/svg">
  <defs>
    <linearGradient id="bg" x1="0" y1="0" x2="1" y2="1">
      <stop offset="0" stop-color="#0B1D33"/>
      <stop offset="1" stop-color="#18283F"/>
    </linearGradient>
  </defs>
  <rect x="0" y="0" width="900" height="560" rx="18" fill="url(#bg)"/>
  <circle cx="450" cy="280" r="88" fill="#101D33" stroke="#6D6AFF" stroke-width="3"/>
  <text x="450" y="288" fill="#F9FAFB" font-family="ui-sans-serif,system-ui" font-size="30" text-anchor="middle">AI</text>
  <text x="450" y="316" fill="#C7D2FE" font-size="14" text-anchor="middle">Engine</text>

  <!-- spokes -->
  <g stroke="#6D6AFF" stroke-width="2" opacity="0.85">
    <line x1="450" y1="192" x2="450" y2="110"/>
    <line x1="450" y1="368" x2="450" y2="450"/>
    <line x1="362" y1="280" x2="280" y2="280"/>
    <line x1="538" y1="280" x2="620" y2="280"/>
    <line x1="400" y1="210" x2="330" y2="150"/>
    <line x1="500" y1="210" x2="570" y2="150"/>
    <line x1="400" y1="350" x2="330" y2="410"/>
    <line x1="500" y1="350" x2="570" y2="410"/>
  </g>

  <!-- boxes -->
  <g font-family="ui-sans-serif,system-ui" fill="#F9FAFB">
    <rect x="410" y="70" width="80" height="36" rx="8" fill="#0F2138" stroke="#6D6AFF"/>
    <text x="450" y="93" font-size="14" text-anchor="middle">Inventory</text>

    <rect x="410" y="454" width="80" height="36" rx="8" fill="#0F2138" stroke="#6D6AFF"/>
    <text x="450" y="477" font-size="14" text-anchor="middle">Sales & CRM</text>

    <rect x="180" y="262" width="120" height="36" rx="8" fill="#0F2138" stroke="#6D6AFF"/>
    <text x="240" y="285" font-size="14" text-anchor="middle">Accounting</text>

    <rect x="600" y="262" width="120" height="36" rx="8" fill="#0F2138" stroke="#6D6AFF"/>
    <text x="660" y="285" font-size="14" text-anchor="middle">AI Assistant</text>

    <rect x="275" y="128" width="150" height="36" rx="8" fill="#0F2138" stroke="#6D6AFF"/>
    <text x="350" y="151" font-size="14" text-anchor="middle">Purchase Forecasting</text>

    <rect x="475" y="128" width="150" height="36" rx="8" fill="#0F2138" stroke="#6D6AFF"/>
    <text x="550" y="151" font-size="14" text-anchor="middle">Smart Invoicing</text>

    <rect x="275" y="396" width="150" height="36" rx="8" fill="#0F2138" stroke="#6D6AFF"/>
    <text x="350" y="419" font-size="14" text-anchor="middle">Manufacturing</text>

    <rect x="475" y="396" width="150" height="36" rx="8" fill="#0F2138" stroke="#6D6AFF"/>
    <text x="550" y="419" font-size="14" text-anchor="middle">WMS</text>
  </g>
</svg>
